<svg width="100" height="100" viewBox="0 0 100 100" fill="none" xmlns="http://www.w3.org/2000/svg">
<path d="M50.0001 0C22.4301 0 0 22.4298 0 49.9999C0 77.5699 22.4301 100 50.0001 100C77.5702 100 100 77.5699 100 49.9999C100 22.4298 77.5702 0 50.0001 0Z" fill="#16355A"/>
<path d="M50.0001 1.92318C71.8697 1.92318 90.3732 16.6022 96.1813 36.6243L81.9806 40.4294C77.8563 26.6729 65.0811 16.6191 50.0001 16.6191C34.9223 16.6191 22.1493 26.6687 18.0222 40.4209L3.82123 36.6157C9.63223 16.598 28.1337 1.92318 50.0001 1.92318Z" fill="white"/>
<path d="M50.0001 98.0766C23.4906 98.0766 1.92346 76.5096 1.92346 49.9999C1.92346 46.0277 2.41109 42.1678 3.3236 38.4735L17.5225 42.2782C16.9331 44.7577 16.6192 47.3427 16.6192 49.9999C16.6192 53.6483 17.2102 57.1607 18.2972 60.4495L16.4737 63.1564C15.8015 64.1543 16.4951 65.5123 17.698 65.5324C18.634 65.5481 19.5804 65.5954 20.5348 65.6699C26.1565 76.1985 37.2543 83.3808 50.0001 83.3808C62.7965 83.3808 73.9301 76.1405 79.5305 65.5436C80.4351 65.4853 81.3288 65.4534 82.2069 65.4545C83.4302 65.4562 84.1584 64.0944 83.4749 63.0798L81.7031 60.4495C82.7901 57.1608 83.381 53.6483 83.381 49.9999C83.381 47.3458 83.068 44.7637 82.4798 42.2869L96.6785 38.4823C97.5897 42.174 98.0765 46.0309 98.0765 49.9999C98.0765 76.5096 76.5097 98.0766 50.0001 98.0766Z" fill="white"/>
<path d="M23.4888 14.8465L25.2949 20.7593L26.3656 19.9805L25.9324 18.6478L27.6389 17.4066L28.7727 18.2298L29.8435 17.4511L24.7767 13.9099L23.4888 14.8465ZM24.9368 15.4448L26.8183 16.8108L25.6188 17.6832L24.8999 15.4715L24.9368 15.4448ZM21.8671 22.7008L21.0498 17.7411L20.5324 17.2213L17.3609 20.3775L18.0794 21.0996L20.1508 19.0384L20.9701 23.996L21.4875 24.5159L24.659 21.3596L23.9402 20.6375L21.8671 22.7008ZM12.0707 27.4915L11.3911 28.8075L12.7162 31.8584L12.6807 31.9268L10.391 30.7446L9.82428 31.8425L15.0172 34.5236L15.5839 33.4257L14.1084 32.6637L13.7279 31.7834L16.5971 31.4631L17.2752 30.1497L13.4009 30.6189L12.0707 27.4915ZM14.0337 24.6007L17.5487 29.687L18.3326 28.62L17.5154 27.4817L18.7648 25.7811L20.095 26.2215L20.8789 25.1545L14.9765 23.3175L14.0337 24.6007ZM15.5947 24.7315L17.8021 25.4624L16.9238 26.6576L15.5677 24.7683L15.5947 24.7315ZM32.3712 9.56636L31.0517 10.2393L30.3489 13.4903L30.2803 13.5254L29.1096 11.2299L28.0089 11.7912L30.6642 16.9974L31.7649 16.436L31.0104 14.9565L31.2147 14.0194L33.7326 15.4324L35.0492 14.7609L31.628 12.8829L32.3712 9.56636ZM78.8173 21.4698C78.8798 21.2721 78.8999 21.0694 78.8778 20.8618C78.8557 20.6541 78.7976 20.4435 78.7037 20.2299C78.6098 20.0163 78.4878 19.8027 78.3372 19.589L78.0329 19.1432C77.9576 19.0364 77.8922 18.9301 77.8367 18.8245C77.7809 18.7187 77.7402 18.6164 77.7146 18.5173C77.6891 18.4182 77.6844 18.3234 77.701 18.233C77.7173 18.1426 77.7623 18.0601 77.8353 17.9851C77.9198 17.8921 78.0221 17.8337 78.1431 17.8096C78.2637 17.7856 78.3945 17.7994 78.5348 17.8511C78.6755 17.903 78.8203 17.9966 78.9696 18.1322C79.1894 18.3316 79.3207 18.5366 79.3632 18.7473C79.4056 18.958 79.3579 19.1564 79.2202 19.3421L80.0973 20.1381C80.3269 19.8763 80.4638 19.587 80.5077 19.2696C80.5516 18.9524 80.5034 18.6298 80.3627 18.3019C80.2223 17.9741 79.9915 17.6644 79.6704 17.3729C79.3547 17.0866 79.0231 16.8858 78.6755 16.7707C78.3276 16.6556 77.9942 16.6317 77.6751 16.699C77.3557 16.7663 77.0779 16.9317 76.8416 17.195C76.5498 17.5134 76.4242 17.863 76.464 18.2435C76.5041 18.6241 76.6663 19.0243 76.9505 19.4441L77.3144 19.9901C77.4377 20.1713 77.5327 20.3348 77.5998 20.4803C77.6667 20.6259 77.6987 20.7577 77.6958 20.8757C77.6926 20.9937 77.6469 21.1012 77.5589 21.1985C77.4641 21.3027 77.3487 21.3662 77.2124 21.389C77.0764 21.4118 76.9302 21.3936 76.7744 21.3345C76.6186 21.2753 76.4634 21.1755 76.3085 21.0348C76.1507 20.8917 76.0315 20.7393 75.951 20.5775C75.8705 20.4158 75.8368 20.253 75.8505 20.0894C75.8641 19.9257 75.9318 19.7669 76.0536 19.6129L75.1683 18.8094C74.8928 19.1271 74.7318 19.4568 74.685 19.7984C74.6382 20.1401 74.6954 20.4817 74.8568 20.8234C75.0184 21.165 75.2735 21.4945 75.6229 21.8116C75.9752 22.1311 76.3245 22.3512 76.6712 22.4718C77.0177 22.5924 77.3455 22.6162 77.6545 22.5433C77.9632 22.4705 78.2387 22.3022 78.4805 22.0386C78.6427 21.8571 78.7549 21.6674 78.8173 21.4698ZM82.5033 20.3066L78.1349 24.1887L78.9557 25.1123L83.3241 21.2301L82.5033 20.3066ZM89.6941 30.8987L86.8464 30.8793L86.8199 30.8288L88.4365 28.4842L87.7973 27.2568L85.4312 30.8926L83.5987 31.847L84.1655 32.9352L85.998 31.9809L90.3335 32.1261L89.6941 30.8987ZM86.4706 27.0819L87.3012 26.4921L84.5218 22.579L83.6911 23.1689L84.7273 24.6276L80.7931 27.4219L81.5006 28.4176L85.4344 25.6234L86.4706 27.0819ZM75.3834 16.3194C75.5993 15.9992 75.7188 15.6742 75.7423 15.3449C75.7659 15.0155 75.6918 14.6982 75.5197 14.3932C75.3479 14.0883 75.0791 13.8125 74.7129 13.5659L72.8008 12.2776L69.5354 17.1245L70.5602 17.8148L71.7178 16.0966L72.4657 16.6006L72.2264 18.9373L73.3576 19.6993L73.598 17.1211C73.6173 17.1247 73.6369 17.1311 73.6561 17.1341C74.0017 17.188 74.3217 17.1462 74.6164 17.0086C74.9108 16.8709 75.1666 16.6413 75.3834 16.3194ZM74.3281 15.6084C74.2205 15.7677 74.0988 15.8796 73.9627 15.9436C73.8264 16.008 73.6756 16.0233 73.5102 15.9899C73.3445 15.9563 73.1641 15.8736 72.9685 15.7418L72.2726 15.273L73.2611 13.8058L73.9523 14.2713C74.1493 14.4041 74.2938 14.5433 74.385 14.6885C74.4763 14.8338 74.5167 14.9832 74.5062 15.1367C74.4958 15.2901 74.4365 15.4474 74.3281 15.6084ZM48.4106 5.94205L47.18 6.05307L47.5113 9.72781C47.5314 9.94943 47.5003 10.151 47.4183 10.3322C47.3364 10.5134 47.2111 10.6612 47.0431 10.7757C46.8745 10.8902 46.6711 10.9582 46.4325 10.9798C46.1956 11.0011 45.9837 10.9706 45.7968 10.8882C45.6097 10.8057 45.4597 10.6827 45.3466 10.5191C45.2333 10.3555 45.1667 10.1628 45.147 9.94114L44.8153 6.26626L43.5848 6.37728L43.9257 10.1572C43.9641 10.5817 44.098 10.944 44.3276 11.2441C44.557 11.5443 44.8607 11.7667 45.2385 11.9113C45.6164 12.0557 46.0471 12.1061 46.5301 12.0625C47.0114 12.0192 47.425 11.8927 47.7709 11.6828C48.1168 11.473 48.3763 11.1998 48.5492 10.8634C48.7225 10.5268 48.7899 10.1463 48.7515 9.722L48.4106 5.94205ZM37.5958 7.73357L38.3401 10.0272L35.9542 10.8013L35.2102 8.50769L34.0348 8.88902L35.8383 14.4479L37.0136 14.0665L36.2687 11.7703L38.6546 10.9962L39.3995 13.2924L40.572 12.9121L38.7685 7.35312L37.5958 7.73357ZM64.4573 8.38461L61.7877 12.2047L61.736 12.1885L61.7049 7.52925L60.3941 7.12177L60.5862 13.3014L62.1066 13.774L65.7652 8.79122L64.4573 8.38461ZM53.9784 9.8307L53.9273 9.82721L51.6588 5.98971L50.577 5.91647L50.1821 11.7472L51.4147 11.8308L51.6635 8.16096L51.7062 8.16386L53.9941 12.0056L55.059 12.0777L55.454 6.24693L54.2269 6.16381L53.9784 9.8307ZM56.4015 12.3529L57.6164 12.5781L58.6825 6.83214L57.4676 6.60675L56.4015 12.3529ZM69.311 14.2443L69.756 13.3279L67.5076 12.2359L68.1159 10.9832L70.5465 12.1637L70.9918 11.2473L67.4494 9.52712L64.8964 14.7843L68.449 16.5094L68.8942 15.593L66.4528 14.4076L67.0626 13.1523L69.311 14.2443Z" fill="#16355A"/>
<path d="M88.326 49.2623C88.4899 49.5898 88.7085 49.8428 88.9814 50.0214C89.2546 50.2002 89.5676 50.2802 89.921 50.2618C90.3526 50.2436 90.6889 50.0859 90.9301 49.7891C91.1717 49.492 91.3405 49.0947 91.4373 48.597L91.5672 47.9538C91.6085 47.7386 91.6573 47.5559 91.7131 47.4056C91.7689 47.2555 91.8396 47.1398 91.9253 47.0586C92.011 46.9775 92.1195 46.9339 92.2505 46.9278C92.3912 46.9211 92.5176 46.9582 92.6301 47.0386C92.7423 47.1191 92.8327 47.2353 92.9007 47.3873C92.9687 47.5393 93.0077 47.72 93.0173 47.9289C93.0271 48.1418 93.0033 48.3338 92.9458 48.505C92.8879 48.6763 92.7964 48.8148 92.6708 48.9206C92.5452 49.0266 92.3851 49.0906 92.1898 49.1132L92.2456 50.3074C92.6653 50.2784 93.0126 50.1598 93.2876 49.9517C93.5625 49.7437 93.7642 49.4619 93.8921 49.1065C94.0203 48.751 94.0734 48.3376 94.0514 47.8663C94.0293 47.3913 93.9386 46.9884 93.7793 46.6578C93.62 46.3272 93.4055 46.0783 93.1358 45.9109C92.8661 45.7435 92.5528 45.6672 92.1953 45.682C91.952 45.6952 91.7384 45.7496 91.5544 45.8447C91.3705 45.9401 91.2127 46.0688 91.0813 46.2312C90.9496 46.3935 90.8415 46.5833 90.7563 46.8005C90.6712 47.0178 90.6061 47.2551 90.561 47.5123L90.4602 48.0427C90.4375 48.1713 90.4084 48.2927 90.373 48.4068C90.3372 48.5208 90.2934 48.6218 90.2413 48.7099C90.1893 48.7981 90.1256 48.8682 90.0498 48.9203C89.9742 48.9724 89.8841 48.9991 89.7792 49.0001C89.6539 49.0059 89.54 48.9747 89.4377 48.9061C89.3357 48.8375 89.2531 48.7352 89.1907 48.599C89.1282 48.463 89.0921 48.2943 89.0828 48.0927C89.0689 47.7963 89.1215 47.5587 89.2409 47.3798C89.3601 47.2009 89.5342 47.0947 89.7629 47.0611L89.7077 45.8782C89.3601 45.9001 89.0587 46.0075 88.8029 46.2005C88.5472 46.3933 88.3527 46.6552 88.2196 46.9861C88.0868 47.317 88.0301 47.6992 88.0505 48.1324C88.0702 48.5582 88.1624 48.9347 88.326 49.2623ZM65.5053 84.9177L66.8911 88.3217L66.8434 88.3412L63.1215 85.8879L62.117 86.2965L64.3204 91.7095L65.4646 91.2439L64.078 87.837L64.1178 87.8207L67.8592 90.2691L68.8477 89.8668L66.6446 84.4539L65.5053 84.9177ZM93.2931 51.7249C93.0478 51.5233 92.747 51.4063 92.3909 51.3736C92.1482 51.3547 91.9291 51.3803 91.7341 51.4504C91.539 51.5206 91.3655 51.6274 91.2138 51.7708C91.0621 51.9144 90.9299 52.0882 90.8168 52.2924C90.7037 52.4964 90.6078 52.7231 90.5291 52.9722L90.359 53.4846C90.3198 53.6091 90.275 53.7255 90.2245 53.8338C90.1742 53.9422 90.1172 54.0365 90.0541 54.117C89.9908 54.1975 89.9184 54.2586 89.8365 54.3003C89.7545 54.3418 89.6618 54.3564 89.5577 54.3436C89.4325 54.3328 89.3241 54.2868 89.2316 54.2052C89.1395 54.1238 89.0712 54.0115 89.0273 53.8684C88.9831 53.7252 88.9698 53.5532 88.9872 53.3522C89.0125 53.0565 89.0962 52.8279 89.238 52.6663C89.3799 52.5048 89.5665 52.4224 89.7978 52.4195L89.8992 51.2395C89.5519 51.2154 89.2386 51.2821 88.9596 51.4395C88.6809 51.5969 88.4536 51.8308 88.2777 52.1412C88.1022 52.4516 87.9958 52.8229 87.9586 53.2551C87.922 53.6797 87.9636 54.0651 88.0824 54.4114C88.2016 54.7577 88.385 55.0375 88.632 55.2507C88.8791 55.4637 89.1787 55.5846 89.5316 55.613C89.9617 55.6519 90.316 55.5402 90.5945 55.2777C90.8729 55.0153 91.0929 54.6437 91.2545 54.1629L91.4681 53.5427C91.5376 53.3349 91.61 53.1601 91.6852 53.0185C91.7602 52.8771 91.8457 52.7718 91.9416 52.7026C92.0372 52.6336 92.1503 52.6047 92.2811 52.6158C92.4214 52.6279 92.5418 52.6812 92.6426 52.7758C92.7432 52.8705 92.8173 52.9976 92.8647 53.1573C92.912 53.317 92.9269 53.5011 92.9088 53.7095C92.8905 53.9219 92.8414 54.109 92.7618 54.2712C92.6818 54.4332 92.5729 54.5585 92.4345 54.6469C92.2962 54.7352 92.1288 54.7776 91.9323 54.774L91.8297 55.9654C92.2497 55.992 92.6095 55.9202 92.9094 55.7503C93.2097 55.5804 93.4465 55.3278 93.6206 54.9923C93.7944 54.6569 93.9017 54.2542 93.9421 53.7841C93.9828 53.3103 93.9461 52.8989 93.8319 52.5503C93.718 52.2015 93.5381 51.9263 93.2931 51.7249ZM34.0182 84.6846L32.8891 84.183L30.5151 89.5233L33.9337 91.0427L34.3475 90.1121L32.0578 89.0943L34.0182 84.6846ZM31.183 84.7875C31.215 84.2809 31.1176 83.8185 30.8906 83.4006C30.6633 82.9821 30.3311 82.6368 29.8934 82.3644C29.4525 82.0898 28.9948 81.9433 28.5201 81.9247C28.0455 81.9058 27.5883 82.0229 27.1486 82.2755C26.7089 82.5284 26.3206 82.9251 25.9837 83.4663C25.6477 84.0057 25.4634 84.5283 25.4306 85.0346C25.3978 85.5409 25.4943 86.003 25.7201 86.4215C25.9456 86.84 26.279 87.1865 26.7199 87.4609C27.1576 87.7335 27.6139 87.8794 28.0894 87.8986C28.5649 87.918 29.023 87.8015 29.4636 87.5492C29.9042 87.2969 30.2928 86.9002 30.6296 86.3593C30.9665 85.8181 31.151 85.2944 31.183 84.7875ZM29.962 84.7131C29.9164 85.0189 29.7844 85.3467 29.5662 85.6972C29.3482 86.0475 29.1119 86.3105 28.8579 86.4863C28.6041 86.6622 28.3437 86.7534 28.0775 86.7601C27.811 86.7668 27.5511 86.6912 27.2977 86.5331C27.044 86.3756 26.8614 86.1756 26.7501 85.9335C26.6385 85.6914 26.6057 85.4176 26.6513 85.1125C26.6969 84.8067 26.8289 84.4789 27.0472 84.1284C27.2651 83.7778 27.5014 83.5151 27.7555 83.339C28.0092 83.1634 28.2696 83.0722 28.5358 83.0655C28.8024 83.0588 29.0622 83.1344 29.3156 83.2922C29.5694 83.45 29.7519 83.65 29.8632 83.8921C29.9748 84.1342 30.0076 84.408 29.962 84.7131ZM26.0174 79.7292L23.6187 82.5141L23.5798 82.4804L24.0672 78.0494L23.2456 77.3417L19.4314 81.7695L20.3676 82.576L22.7683 79.7891L22.8006 79.817L22.3265 84.2632L23.1351 84.9599L26.9492 80.5318L26.0174 79.7292ZM72.0311 82.8963C71.6114 82.6391 71.1598 82.5182 70.6761 82.5348C70.1925 82.5513 69.6978 82.7094 69.1924 83.01L67.3968 84.0769L70.3823 89.1007L72.1633 88.0424C72.6737 87.7393 73.0524 87.378 73.3 86.9586C73.5477 86.5395 73.6584 86.0832 73.632 85.5897C73.6055 85.0965 73.4367 84.5882 73.1257 84.065C72.8156 83.5433 72.4508 83.1535 72.0311 82.8963ZM72.272 86.5192C72.1235 86.7587 71.8925 86.972 71.5783 87.1586L70.9037 87.5597L69 84.3556L69.6769 83.9534C69.9908 83.7668 70.2881 83.6656 70.5683 83.6494C70.8488 83.6331 71.1133 83.7107 71.362 83.8813C71.6105 84.0522 71.8454 84.3234 72.066 84.6945C72.2886 85.0692 72.4156 85.4069 72.4473 85.7077C72.479 86.0088 72.4206 86.2791 72.272 86.5192ZM21.8464 75.8144L20.0174 77.3856L18.3828 75.4829L20.2118 73.9117L19.4067 72.9745L14.9739 76.7826L15.7789 77.72L17.6103 76.1469L19.2446 78.0494L17.4135 79.6225L18.2169 80.5577L22.6497 76.7494L21.8464 75.8144ZM40.5118 87.2958C40.1807 86.954 39.768 86.7107 39.273 86.5657C38.7746 86.4198 38.2945 86.4018 37.8323 86.511C37.3699 86.6203 36.961 86.856 36.6052 87.2179C36.2498 87.5794 35.9824 88.066 35.8031 88.6775C35.6246 89.2876 35.5874 89.8406 35.692 90.3371C35.7964 90.8335 36.0135 91.2529 36.3434 91.5953C36.6733 91.9376 37.0874 92.1818 37.5859 92.3277C38.0805 92.4727 38.5595 92.4904 39.0228 92.3814C39.4858 92.2722 39.8956 92.0367 40.2522 91.6752C40.6088 91.3139 40.8768 90.8277 41.0559 90.2159C41.2349 89.6041 41.2718 89.0501 41.1666 88.5534C41.0611 88.0567 40.8428 87.6376 40.5118 87.2958ZM39.8535 89.8639C39.7375 90.2598 39.5808 90.5768 39.3835 90.8143C39.1859 91.052 38.9597 91.2096 38.7051 91.2878C38.4502 91.3659 38.1797 91.3627 37.8931 91.2787C37.6062 91.195 37.3769 91.0515 37.2043 90.8483C37.0319 90.6451 36.9267 90.3905 36.8886 90.0836C36.8505 89.7773 36.8895 89.4259 37.0055 89.0298C37.1214 88.6336 37.2781 88.3165 37.4757 88.0793C37.6731 87.8416 37.8992 87.6838 38.1538 87.6056C38.4087 87.5277 38.6793 87.5306 38.9661 87.6146C39.2527 87.6986 39.482 87.8422 39.6547 88.0451C39.827 88.2485 39.9322 88.5031 39.9703 88.8097C40.0084 89.1164 39.9694 89.4675 39.8535 89.8639ZM15.0515 73.384C14.9038 73.4423 14.7591 73.4725 14.6172 73.4748C14.4751 73.477 14.3388 73.4538 14.2086 73.4049C14.0784 73.3561 13.9572 73.2832 13.8453 73.1861C13.7331 73.0889 13.6331 72.9701 13.5456 72.8296C13.3896 72.5794 13.3137 72.3208 13.3175 72.0539C13.3216 71.7869 13.4108 71.5255 13.5855 71.2699C13.7598 71.0141 14.024 70.7761 14.3775 70.5556C14.7216 70.3413 15.0468 70.2112 15.3534 70.1657C15.6604 70.1202 15.9365 70.1532 16.1818 70.2647C16.4274 70.3762 16.6302 70.5603 16.7901 70.8169C16.8787 70.9589 16.9409 71.1035 16.9764 71.2506C17.0121 71.3976 17.0211 71.5416 17.0037 71.6826C16.9863 71.8234 16.9424 71.9573 16.8723 72.084C16.802 72.2105 16.7046 72.3264 16.5794 72.4313L17.2406 73.492C17.5068 73.2789 17.7138 73.0428 17.8617 72.7835C18.0093 72.5244 18.1009 72.2515 18.1363 71.965C18.1718 71.6784 18.1532 71.3867 18.0805 71.0903C18.0076 70.7938 17.8817 70.5019 17.7024 70.2146C17.4307 69.7786 17.0865 69.4484 16.6698 69.224C16.253 68.9997 15.7914 68.904 15.2854 68.9372C14.7791 68.9703 14.2557 69.1555 13.7148 69.4926C13.1757 69.8287 12.7789 70.2156 12.5249 70.6531C12.2709 71.0906 12.1523 71.5457 12.1689 72.0184C12.1857 72.491 12.3319 72.9486 12.6077 73.391C12.806 73.709 13.0318 73.9643 13.2855 74.1571C13.539 74.3498 13.8055 74.4863 14.0854 74.5664C14.365 74.6464 14.6443 74.6752 14.9227 74.6528C15.2014 74.6304 15.463 74.562 15.7077 74.4476L15.0515 73.384ZM52.2473 88.1346L50.9723 90.6812L50.915 90.6826L49.5255 88.1968L48.142 88.2282L50.359 91.9568L50.4061 94.0224L51.6326 93.9945L51.5858 91.9289L53.6308 88.1032L52.2473 88.1346ZM58.116 87.3205L57.5091 93.4731L58.797 93.1662L58.9096 91.7694L60.9622 91.2799L61.6921 92.4756L62.9802 92.1687L59.6648 86.9511L58.116 87.3205ZM58.9911 90.7584L59.178 88.4403L59.2225 88.4296L60.4339 90.4143L58.9911 90.7584ZM43.6728 89.5796C43.8332 89.3152 44.0347 89.1239 44.277 89.0053C44.5194 88.8868 44.7889 88.8461 45.085 88.8839C45.2434 88.9042 45.3858 88.9426 45.512 88.9989C45.6381 89.0553 45.7477 89.1274 45.841 89.2152C45.9343 89.303 46.0102 89.4047 46.0683 89.5204C46.1261 89.636 46.1662 89.7654 46.1883 89.9081L47.4337 90.0673C47.4308 89.7752 47.3747 89.5012 47.2657 89.2445C47.1564 88.9879 47.003 88.7589 46.8053 88.5572C46.6077 88.3555 46.3735 88.1889 46.1026 88.0576C45.8317 87.9259 45.532 87.8393 45.2036 87.7974C44.8205 87.7486 44.4564 87.7701 44.1108 87.8619C43.7655 87.9544 43.4528 88.1128 43.1726 88.3377C42.8927 88.563 42.6608 88.8513 42.4768 89.2024C42.2928 89.5541 42.171 89.9645 42.1109 90.4347C42.0327 91.0459 42.0801 91.5886 42.2527 92.0623C42.4251 92.5358 42.7018 92.9191 43.0822 93.2124C43.463 93.5056 43.9251 93.687 44.4686 93.7562C44.9554 93.8184 45.4001 93.7751 45.8026 93.626C46.2052 93.4772 46.5374 93.2336 46.7992 92.8959C47.0611 92.5582 47.2245 92.1347 47.2896 91.6252L47.3829 90.8951L44.9569 90.5853L44.8391 91.5078L46.0825 91.6666C46.048 91.8974 45.9713 92.0936 45.85 92.2527C45.7221 92.4204 45.5533 92.5413 45.3434 92.6151C45.1336 92.6889 44.89 92.7081 44.6127 92.6727C44.307 92.6337 44.0512 92.5259 43.8457 92.3489C43.64 92.1722 43.4938 91.9344 43.4074 91.6357C43.3208 91.3369 43.3034 90.9858 43.3551 90.5818C43.4066 90.1781 43.5127 89.8441 43.6728 89.5796ZM91.8489 59.9544L90.4858 59.6554L91.0214 57.2137L90.0262 56.9954L89.4906 59.4371L88.1304 59.1387L88.7093 56.4993L87.7145 56.281L86.8707 60.1274L92.579 61.3796L93.4253 57.5219L92.4302 57.3036L91.8489 59.9544ZM12.6691 68.4775L13.6003 68.0645L12.5871 65.7793L13.8601 65.2149L14.9556 67.6852L15.8868 67.2724L14.2906 63.6725L8.94797 66.0414L10.5491 69.6517L11.4803 69.2387L10.3803 66.7579L11.6559 66.1924L12.6691 68.4775ZM87.1512 70.4774C86.944 70.3499 86.7373 70.2728 86.5319 70.2462C86.3264 70.2198 86.1232 70.2358 85.9227 70.2943C85.7224 70.3529 85.5254 70.4474 85.3315 70.5774C85.1379 70.7076 84.9493 70.8656 84.7656 71.0513L84.3808 71.4299C84.289 71.5227 84.196 71.606 84.1015 71.6794C84.0073 71.7528 83.9137 71.8109 83.8207 71.8538C83.7277 71.8965 83.6356 71.9179 83.5435 71.9176C83.4516 71.9173 83.3624 71.8878 83.2758 71.8291C83.1694 71.7624 83.0935 71.6718 83.0485 71.5573C83.0037 71.4428 82.9941 71.3117 83.0203 71.1642C83.0465 71.0167 83.113 70.8575 83.22 70.6866C83.3772 70.435 83.556 70.2696 83.7559 70.1906C83.9559 70.1114 84.1593 70.1231 84.3666 70.2259L84.9949 69.2222C84.6967 69.0422 84.3875 68.9588 84.0675 68.9718C83.7475 68.9847 83.4385 69.0892 83.1406 69.2854C82.8427 69.4817 82.5788 69.7636 82.3489 70.1313C82.1228 70.4926 81.9839 70.8544 81.9319 71.217C81.8801 71.5796 81.9156 71.9119 82.0382 72.2143C82.1609 72.5166 82.3727 72.7609 82.6739 72.947C83.0389 73.1777 83.4051 73.2397 83.7725 73.133C84.1402 73.0264 84.5052 72.796 84.8682 72.4419L85.3414 71.9873C85.4977 71.8339 85.6419 71.7114 85.7733 71.6197C85.9046 71.5281 86.0287 71.4733 86.1456 71.4553C86.2621 71.4376 86.3761 71.4634 86.4874 71.5331C86.6068 71.6078 86.6897 71.7101 86.7362 71.8401C86.7827 71.9703 86.7905 72.1173 86.76 72.2809C86.7292 72.4447 86.6586 72.6153 86.5475 72.7926C86.4345 72.9732 86.3054 73.1175 86.1604 73.2253C86.0154 73.3333 85.8613 73.3949 85.698 73.4105C85.5344 73.426 85.3661 73.3875 85.1929 73.2948L84.5587 74.3083C84.9199 74.5233 85.2731 74.6236 85.6175 74.6092C85.9622 74.5948 86.2883 74.478 86.5961 74.2587C86.9039 74.0396 87.1829 73.73 87.4331 73.33C87.6854 72.9268 87.8403 72.5441 87.8976 72.1816C87.9551 71.8192 87.9205 71.4924 87.7941 71.2013C87.6677 70.9101 87.4535 70.6688 87.1512 70.4774ZM86.2281 62.1327L89.6743 63.4103L89.6565 63.4586L85.3335 64.5462L84.9566 65.5628L90.4363 67.5944L90.8656 66.4358L87.4169 65.1572L87.4317 65.1171L91.7643 64.0117L92.1354 63.011L86.6557 60.9795L86.2281 62.1327ZM83.6702 75.1777L80.7681 72.7321L79.9718 73.677L82.7933 76.0546C82.9636 76.198 83.0834 76.363 83.1525 76.5494C83.2217 76.7359 83.2368 76.929 83.1979 77.1288C83.1589 77.3286 83.0622 77.52 82.9078 77.7034C82.7544 77.8852 82.5826 78.0126 82.3916 78.0856C82.2007 78.1587 82.0074 78.1769 81.8121 78.1402C81.6165 78.1036 81.4337 78.0135 81.2634 77.8701L78.4418 75.4925L77.6457 76.4374L80.5478 78.883C80.8739 79.1576 81.2238 79.3207 81.5982 79.3724C81.9725 79.4243 82.3448 79.3685 82.7151 79.2053C83.0851 79.0421 83.4266 78.7749 83.7391 78.404C84.0506 78.0344 84.2552 77.6534 84.3535 77.2609C84.4514 76.8685 84.4436 76.4919 84.3299 76.1309C84.216 75.77 83.996 75.4524 83.6702 75.1777ZM83.9332 67.5194L89.1668 70.1202L89.7167 69.0138L84.4831 66.413L83.9332 67.5194ZM80.0014 80.0601C79.8099 79.8459 79.5994 79.7017 79.3698 79.6275C79.1402 79.5532 78.9141 79.5378 78.6915 79.5811C78.4686 79.6246 78.2712 79.7168 78.0989 79.8579L78.0608 79.8154C78.1823 79.6458 78.2657 79.4672 78.3113 79.2799C78.3569 79.0924 78.3564 78.904 78.3099 78.7148C78.2631 78.5256 78.1637 78.3459 78.0117 78.1756C77.8166 77.9571 77.5899 77.812 77.3318 77.7402C77.0738 77.6684 76.7953 77.6807 76.4963 77.7769C76.1972 77.8734 75.8871 78.0647 75.5665 78.3511L73.8215 79.9101L77.7149 84.2684L79.5771 82.6048C79.9035 82.3136 80.131 82.0157 80.2601 81.7117C80.3888 81.4078 80.4298 81.1142 80.3821 80.8313C80.3348 80.5485 80.208 80.2913 80.0014 80.0601ZM75.4084 79.8316L76.1085 79.2062C76.3129 79.0238 76.5137 78.9309 76.7113 78.9279C76.909 78.925 77.0778 79.0021 77.2185 79.1597C77.3214 79.2746 77.3807 79.3989 77.3967 79.5324C77.4126 79.6661 77.3914 79.7992 77.3327 79.9321C77.274 80.0649 77.1816 80.1875 77.0555 80.3004L76.3721 80.9106L75.4084 79.8316ZM79.1443 81.3709C79.1147 81.5748 78.9714 81.7913 78.7147 82.0206L77.9634 82.692L76.9293 81.5342L77.7018 80.8441C77.8492 80.7123 78 80.6248 78.1541 80.5815C78.3081 80.5383 78.4555 80.5369 78.5959 80.5771C78.7365 80.6174 78.8606 80.6978 78.9685 80.8184C79.1152 80.983 79.1739 81.1671 79.1443 81.3709ZM8.80294 56.121L9.81612 56.0154L9.56994 53.6511L10.9551 53.507L11.2278 56.1267L12.2412 56.021L11.8402 52.1725L6.02759 52.7777L6.15547 54.0067L8.55676 53.7566L8.80294 56.121ZM13.0542 63.3387L14.0316 63.0524L12.6827 58.4461L11.705 58.7324L12.2078 60.4495L7.577 61.8057L7.92025 62.9778L12.5511 61.6217L13.0542 63.3387ZM7.21922 50.8867C7.6578 51.1424 8.19549 51.2812 8.83258 51.3032C9.46938 51.325 10.0152 51.2232 10.4704 50.998C10.9255 50.7727 11.2775 50.4575 11.5263 50.0519C11.7753 49.6465 11.9087 49.1861 11.9265 48.671C11.9442 48.1519 11.8428 47.682 11.6219 47.2613C11.4013 46.8408 11.0717 46.5031 10.6331 46.2482C10.1945 45.9933 9.65684 45.8549 9.01976 45.8331C8.3847 45.8113 7.83975 45.9126 7.38489 46.1368C6.92974 46.3611 6.57719 46.6755 6.32753 47.08C6.07758 47.4846 5.94359 47.9462 5.92586 48.4653C5.90813 48.9805 6.00986 49.449 6.23046 49.8706C6.45105 50.2922 6.78064 50.6308 7.21922 50.8867ZM7.26456 47.7288C7.4186 47.5114 7.6392 47.3462 7.92694 47.2333C8.21438 47.1204 8.56432 47.071 8.97703 47.0851C9.38945 47.0993 9.73532 47.1725 10.0143 47.3048C10.2936 47.4372 10.5023 47.6171 10.6413 47.8445C10.7799 48.0719 10.8444 48.335 10.8339 48.6335C10.8238 48.932 10.7418 49.1899 10.5878 49.4074C10.4337 49.6248 10.2128 49.7899 9.9254 49.903C9.63795 50.0159 9.28773 50.0653 8.87531 50.0511C8.46259 50.037 8.11702 49.9637 7.83771 49.8313C7.55869 49.6991 7.34972 49.5192 7.21109 49.2918C7.07216 49.0642 7.00793 48.8012 7.0181 48.5028C7.02856 48.2042 7.11052 47.9462 7.26456 47.7288Z" fill="#16355A"/>
<path d="M49.9999 72.466C38.3564 66.8199 28.01 63.9321 18.4489 63.6666L22.0149 58.3728C28.1668 58.6748 33.7797 59.7983 38.8101 61.7274C40.091 62.3876 41.3207 62.921 42.5218 63.4396C42.9143 63.609 43.2976 63.775 43.6742 63.9414C45.7023 65.0216 47.6169 66.2538 49.4122 67.6397L49.7295 67.8847L50.0417 68.1957L50.6349 67.6047C52.3154 66.3115 54.1028 65.1562 55.9869 64.13C56.4974 63.8996 57.0214 63.6728 57.5616 63.4396C58.8247 62.8943 60.1193 62.3326 61.4719 61.624C66.4304 59.76 71.947 58.6692 77.9853 58.3728L81.5512 63.6666C71.9905 63.9325 61.6427 66.8202 49.9999 72.466Z" fill="white"/>
<path d="M69.2098 25.8726V45.3564C69.2122 51.4865 66.9204 55.9404 62.204 58.972C60.879 59.7815 59.6001 60.4032 58.3545 60.9619C58.1201 61.0635 57.8865 61.1669 57.654 61.2722C57.3639 61.399 57.075 61.5243 56.7883 61.6481C55.2823 62.2982 53.8238 63.0977 52.4345 64.052C51.6092 64.5634 50.7972 65.1022 50 65.6719C49.0403 64.9158 48.0091 64.2053 46.9216 63.5381C45.7518 62.7729 44.5381 62.1099 43.2919 61.5719C43.2885 61.5704 43.285 61.569 43.2816 61.5675C42.3819 61.1388 41.4552 60.7366 40.5073 60.3596C39.65 59.963 38.776 59.5196 37.8799 58.972C33.1628 55.9406 30.8714 51.4868 30.8738 45.356V25.0429C36.1777 20.9685 42.8104 18.5423 50.0001 18.5423C57.2282 18.5423 63.8923 20.9954 69.2098 25.1093V25.8726Z" fill="#FBBD48"/>
<path d="M28.9227 45.3556V26.6684C22.5521 32.4291 18.5427 40.7548 18.5427 49.9999C18.5427 52.9058 18.9411 55.72 19.6825 58.393L20.5478 57.1085C20.8423 56.6713 21.3423 56.414 21.8688 56.439C25.8413 56.6273 29.9044 57.2238 33.8036 58.2071C30.5287 54.9791 28.9205 50.7446 28.9227 45.3556ZM80.5363 42.4369L80.221 41.2596C78.5841 35.6086 75.3991 30.6104 71.161 26.7493V45.356C71.1632 50.8021 69.5221 55.07 66.1761 58.3107C69.9688 57.3461 73.952 56.7486 78.108 56.4606C78.6463 56.4233 79.164 56.6802 79.4654 57.1277L80.3178 58.3931C81.0592 55.72 81.4576 52.9058 81.4576 49.9999C81.4576 47.3933 81.1367 44.8606 80.5363 42.4369ZM22.8721 65.907C23.4964 66.9677 24.1826 67.9873 24.923 68.964C32.5057 69.0032 40.7181 71.2509 50.0001 75.829C59.2824 71.2506 67.4957 69.0033 75.0792 68.9614C75.8557 67.937 76.5733 66.8656 77.2218 65.749C68.1278 66.7854 58.1232 70.4312 50 74.6063C41.4521 70.4607 31.8761 67.0199 22.8721 65.907ZM50.0001 77.816L49.6031 77.6181C41.0203 73.3375 33.4091 71.089 26.4052 70.7797C27.2464 71.7338 28.146 72.6346 29.0955 73.4809C35.8581 74.3359 44.661 76.9764 49.9837 78.9679C55.3164 76.9727 64.1428 74.3257 70.9104 73.4759C71.8579 72.6309 72.7558 71.7317 73.5954 70.7793C66.5915 71.0936 58.9801 73.3374 50.3973 77.6181L50.0001 77.816Z" fill="#00B0AD"/>
<path d="M64.1358 48.4454C63.8967 48.5996 63.693 48.7544 63.5149 48.9066C63.7808 48.2861 64.011 47.6565 64.2014 47.0198C64.511 47.0742 65.4084 46.8834 66.453 45.7723C67.6335 44.5168 67.5144 43.351 67.5144 43.351C67.5144 43.351 66.3436 43.3041 65.1631 44.5596C64.9537 44.7823 64.7829 44.9962 64.6409 45.1994C64.7708 44.5098 64.86 43.8179 64.9098 43.1278C65.1627 43.1631 66.0573 42.8135 66.8719 41.395C67.73 39.9006 67.3447 38.7939 67.3447 38.7939C67.3447 38.7939 66.1947 39.0189 65.3366 40.5134C65.1717 40.8004 65.0465 41.0681 64.9527 41.3144C64.9337 40.5959 64.8726 39.8849 64.7719 39.1861C65.0275 39.1584 65.8111 38.6054 66.2642 37.0368C66.7424 35.3811 66.1049 34.3979 66.1049 34.3979C66.1049 34.3979 65.0414 34.8898 64.5633 36.5455C64.4834 36.8221 64.4311 37.0753 64.3969 37.3093C64.2644 36.792 64.1084 36.286 63.9325 35.792C63.9747 35.2803 63.9464 34.5447 63.6022 33.8293C62.8552 32.2763 61.3924 32.0225 61.3924 32.0225C61.3924 32.0225 61.2742 33.4037 61.98 34.6323C62.4783 35.4995 63.0054 35.9722 63.3675 36.2192C63.5232 36.6723 63.6603 37.1359 63.7775 37.6091C63.5801 37.4188 63.3417 37.2261 63.0499 37.041C61.5945 36.1181 60.4721 36.4545 60.4721 36.4545C60.4721 36.4545 60.6464 37.6132 62.1017 38.5362C62.9261 39.059 63.6295 39.1814 64.0925 39.1873C64.2051 39.938 64.2671 40.7047 64.2812 41.479C64.1089 41.2506 63.8931 41.0127 63.616 40.7742C62.3097 39.6502 61.1504 39.8205 61.1504 39.8205C61.1504 39.8205 61.155 40.9923 62.4613 42.1163C63.1517 42.7104 63.7875 42.9435 64.2412 43.0315C64.1949 43.6983 64.1106 44.3667 63.9866 45.0332C63.915 44.8264 63.8204 44.6197 63.6924 44.4226C62.7541 42.9771 61.5565 42.8646 61.5565 42.8646C61.5565 42.8646 61.2585 43.9979 62.2303 45.421C62.7399 46.1672 63.2234 46.5565 63.5738 46.7601C63.3867 47.3944 63.1597 48.022 62.8947 48.6399C62.8815 48.4443 62.8506 48.2479 62.7911 48.058C62.2759 46.4135 61.2643 45.8998 61.2643 45.8998C61.2643 45.8998 60.6201 46.8786 61.0868 48.5375C61.3505 49.4749 61.7719 49.9896 62.0954 50.2631C61.7741 50.832 61.4119 51.3866 61.0147 51.9263C61.0572 51.6839 61.084 51.4151 61.0833 51.1142C61.0797 49.3909 60.1928 48.625 60.1928 48.625C60.1928 48.625 59.3092 49.3947 59.3129 51.118C59.3152 52.204 59.6549 52.8977 59.914 53.2697C59.3053 53.9375 58.6219 54.5676 57.8746 55.1601C57.9559 53.6536 56.945 52.4931 55.3064 52.5615C55.451 50.7576 54.6485 49.4941 52.9826 48.857C52.7405 48.7644 52.1471 48.6888 51.9604 48.6967L52.4266 42.3405H47.5981L48.0642 48.6967C47.8775 48.6888 47.2841 48.7644 47.042 48.857C45.3761 49.4941 44.5736 50.7576 44.7182 52.5615C43.1792 52.4973 42.1944 53.5175 42.1475 54.89C41.5315 54.3764 40.9614 53.8365 40.4447 53.2697C40.7038 52.8977 41.0435 52.204 41.0458 51.118C41.0494 49.3947 40.1658 48.625 40.1658 48.625C40.1658 48.625 39.279 49.3909 39.2753 51.1142C39.2747 51.4151 39.3014 51.6839 39.344 51.9263C38.9468 51.3866 38.5846 50.832 38.2633 50.2631C38.5868 49.9896 39.0082 49.4749 39.2719 48.5375C39.7386 46.8786 39.0944 45.8998 39.0944 45.8998C39.0944 45.8998 38.0828 46.4135 37.5676 48.058C37.5081 48.2479 37.4772 48.4443 37.4639 48.6399C37.199 48.022 36.972 47.3944 36.7849 46.7601C37.1353 46.5566 37.6188 46.1672 38.1284 45.421C39.1002 43.9979 38.8021 42.8646 38.8021 42.8646C38.8021 42.8646 37.6046 42.9771 36.6663 44.4226C36.5383 44.6197 36.4436 44.8264 36.3721 45.0332C36.2481 44.3667 36.1638 43.6983 36.1175 43.0315C36.5712 42.9435 37.2069 42.7104 37.8974 42.1163C39.2037 40.9923 39.2083 39.8205 39.2083 39.8205C39.2083 39.8205 38.0489 39.6502 36.7426 40.7742C36.4656 41.0127 36.2498 41.2506 36.0774 41.479C36.0916 40.7047 36.1536 39.938 36.2661 39.1873C36.7292 39.1814 37.4326 39.059 38.2569 38.5362C39.7123 37.6132 39.8866 36.4545 39.8866 36.4545C39.8866 36.4545 38.7641 36.1181 37.3088 37.041C37.017 37.2261 36.7785 37.4188 36.5811 37.6091C36.6983 37.1359 36.8355 36.6723 36.9912 36.2192C37.3532 35.9722 37.8804 35.4995 38.3786 34.6323C39.0845 33.4037 38.9662 32.0225 38.9662 32.0225C38.9662 32.0225 37.5035 32.2763 36.7564 33.8293C36.4123 34.5447 36.3839 35.2803 36.4261 35.792C36.2503 36.286 36.0943 36.792 35.9618 37.3093C35.9276 37.0753 35.8753 36.8221 35.7954 36.5455C35.3172 34.8898 34.2537 34.3979 34.2537 34.3979C34.2537 34.3979 33.6163 35.3811 34.0945 37.0368C34.5475 38.6054 35.3312 39.1584 35.5868 39.1861C35.4861 39.8849 35.4249 40.5959 35.4059 41.3144C35.3121 41.0681 35.1869 40.8004 35.0221 40.5134C34.164 39.0189 33.014 38.7939 33.014 38.7939C33.014 38.7939 32.6286 39.9006 33.4868 41.395C34.3013 42.8135 35.196 43.1631 35.4489 43.1278C35.4986 43.818 35.5879 44.5098 35.7178 45.1995C35.5758 44.9962 35.4049 44.7824 35.1955 44.5596C34.0151 43.3041 32.8442 43.351 32.8442 43.351C32.8442 43.351 32.7252 44.5168 33.9056 45.7723C34.9503 46.8834 35.8477 47.0742 36.1573 47.0198C36.3476 47.6565 36.5779 48.2861 36.8438 48.9066C36.6657 48.7544 36.462 48.5996 36.2228 48.4454C34.7747 47.5112 33.6496 47.8389 33.6496 47.8389C33.6496 47.8389 33.815 48.999 35.2631 49.9331C36.4667 50.7095 37.3491 50.7295 37.6902 50.6235C37.9687 51.1147 38.2762 51.5957 38.609 52.0662C38.496 52.0208 38.3786 51.9764 38.2522 51.9344C36.6168 51.391 35.6091 51.989 35.6091 51.989C35.6091 51.989 36.0585 53.0711 37.6939 53.6145C38.8043 53.9835 39.5793 53.9166 39.9923 53.7776C40.6819 54.5276 41.4575 55.2346 42.3172 55.8912C42.9378 57.2515 45.1576 57.5513 45.1818 55.6276C45.0486 55.8511 44.691 55.9703 44.3415 55.8651C43.8913 55.7297 43.6199 55.2115 43.7227 54.7785C43.8358 54.3021 44.3777 53.922 45.0736 54.1106C46.6029 54.5249 45.8894 56.3967 46.0164 57.441C46.1222 58.3114 46.8551 58.7761 47.6319 58.9037C47.7612 58.925 48.2476 58.9207 48.2476 58.9207L50.0108 61.6922V61.6969L50.0123 61.6945L50.0138 61.6969V61.6922L51.777 58.9207C51.777 58.9207 52.2634 58.925 52.3927 58.9037C53.1696 58.7761 53.9024 58.3114 54.0083 57.441C54.1353 56.3967 53.4218 54.5249 54.951 54.1106C55.6469 53.922 56.1888 54.3021 56.3019 54.7785C56.4047 55.2115 56.1333 55.7297 55.6831 55.8651C55.3336 55.9703 54.9761 55.8511 54.8428 55.6276C54.8639 57.3105 56.5654 57.2899 57.4076 56.3487C58.5243 55.5675 59.5124 54.7063 60.3664 53.7776C60.7794 53.9166 61.5544 53.9835 62.6647 53.6145C64.3001 53.0711 64.7496 51.989 64.7496 51.989C64.7496 51.989 63.7418 51.391 62.1065 51.9344C61.98 51.9764 61.8627 52.0208 61.7497 52.0662C62.0825 51.5957 62.39 51.1147 62.6685 50.6235C63.0095 50.7295 63.892 50.7095 65.0955 49.9331C66.5437 48.999 66.709 47.8389 66.709 47.8389C66.709 47.8389 65.584 47.5112 64.1358 48.4454ZM53.9953 52.6855C53.7905 54.1665 51.8502 54.0262 51.9576 52.882C52.0362 52.0461 52.9749 52.1418 53.1984 52.6408C53.2344 51.2765 51.4535 50.9663 50.751 52.2326C50.0067 53.5743 51.0629 54.5949 52.1197 55.33C53.0705 55.9914 53.2716 57.3465 52.5789 57.6226C52.2022 57.7727 52.1171 57.0267 51.7819 56.7064L50.0123 58.9246L48.2427 56.7064C47.9075 57.0267 47.8225 57.7727 47.4457 57.6226C46.753 57.3465 46.9541 55.9914 47.9049 55.33C48.9618 54.5949 50.0179 53.5743 49.2737 52.2326C48.5712 50.9663 46.7903 51.2765 46.8263 52.6408C47.0497 52.1418 47.9885 52.0461 48.067 52.882C48.1744 54.0262 46.2341 54.1665 46.0293 52.6855C45.7431 50.6159 47.6713 49.4943 49.4117 50.6085C49.4331 50.6185 49.4563 50.6381 49.4563 50.6381V47.5659L50.0123 46.9642L50.5683 47.5659V50.6366C50.5683 50.6366 50.5934 50.6201 50.613 50.6085C52.3533 49.4943 54.2816 50.6159 53.9953 52.6855ZM48.2552 36.022C47.3252 34.7521 47.2915 33.2142 47.9692 32.071C48.386 31.368 49.9732 30.1123 50.4837 29.0542C51.0721 31.257 50.1564 32.3712 50.6209 33.8897C51.0387 33.9156 52.5259 33.4167 52.9926 32.1205C53.4645 33.8478 53.2661 34.962 52.065 36.0221C56.6016 35.4289 57.3857 30.0462 54.8049 26.9174C54.7062 27.6772 54.0674 29.2004 52.8094 29.6325C53.2012 28.5861 53.255 26.5579 52.6926 25.1273C51.9911 23.343 50.6803 22.1119 48.8579 21.5305C48.8579 21.5305 49.1679 23.4116 48.9745 24.5239C48.5968 26.695 46.7679 28.2373 46.2097 30.354C45.6463 29.7613 45.652 28.8112 45.9312 27.939C44.1628 29.3302 43.2242 31.1605 44.1502 33.3909C44.826 35.0185 46.537 36.0062 48.2552 36.022ZM55.8719 38.7302C55.8719 38.7302 55.9506 38.5103 55.9506 37.9775C55.9506 37.4448 55.8719 37.2221 55.8719 37.2221C55.8261 37.0722 55.7519 36.954 55.6039 36.954H44.452C44.304 36.954 44.2297 37.0722 44.184 37.2221C44.184 37.2221 44.1053 37.4448 44.1053 37.9775C44.1053 38.5103 44.184 38.7302 44.184 38.7302C44.2297 38.8801 44.304 38.9983 44.452 38.9983H55.6039C55.7519 38.9983 55.8261 38.8801 55.8719 38.7302ZM47.639 41.7889C48.631 41.865 51.4249 41.865 52.4169 41.7889C53.1931 41.7294 54.3521 40.4449 54.4086 39.6461H45.6473C45.7038 40.4449 46.8628 41.7294 47.639 41.7889ZM50.0138 54.9486L50.0123 54.9503L50.0108 54.9486V54.952L49.0986 55.9773L49.9964 57.2061C50.0009 57.2093 50.0058 57.2112 50.0108 57.213V57.2145C50.0113 57.2143 50.0118 57.2139 50.0123 57.2138C50.0128 57.2139 50.0133 57.2143 50.0138 57.2145V57.213C50.0188 57.2112 50.0238 57.2093 50.0283 57.2061L50.9261 55.9773L50.0138 54.952V54.9486Z" fill="#16355A"/>
</svg>
